<?xml version="1.0" encoding="utf-8"?>
<!-- Generator: Adobe Illustrator 23.0.1, SVG Export Plug-In . SVG Version: 6.00 Build 0)  -->
<svg version="1.1" id="Capa_1" xmlns="http://www.w3.org/2000/svg" xmlns:xlink="http://www.w3.org/1999/xlink" x="0px" y="0px"
	 viewBox="0 0 566.9 595.3" style="enable-background:new 0 0 566.9 595.3;" xml:space="preserve">
<style type="text/css">
	.st0{clip-path:url(#SVGID_2_);}
</style>
<g>
	<g>
		<defs>
			<path id="SVGID_1_" d="M30.3,566c5.8-18.6,16.5-50.1,31.8-80.5c3.9-7.8,10.3-19.8,20.8-33.2c7-8.9,12.6-15.9,22.2-22.6
				c12-8.3,23.2-11.2,33.2-13.8c8.2-2.1,20.4-5.3,36.7-5.3c14.2,0,21.8,2.4,28.9-3.2c5.4-4.2,7.3-10.4,8.1-13.1
				c2.3-7.4,0.8-12.7-2.1-26.5c-3.7-17.8-5.6-26.7-6-32.8c-0.9-12.5,0.8-16.4-2.1-26.1c-2.7-9-6.7-15.5-6.7-15.5
				c-3.6-5.8-6.3-8.1-9.5-14.8c0,0-2.1-4.5-3.5-9.9c-3.2-12.4-0.8-24.2,0.4-30.4c0.5-2.5,1.6-15.3,3.9-40.9
				c2.5-27.9,1.1-27.8,3.5-44.8c0.5-3.7,2.4-13.6,6-33.5c2.8-15.2,3.4-18.3,4.9-22.9c4.7-14.8,11.3-24.6,13.1-27.2
				c1.5-2.2,7.8-11.3,18.7-20.5c0,0,9-7.6,23.3-14.5c4.3-2.1,6.6-2.7,9.2-2.5c3.5,0.3,5.1,1.9,7.4,1.1c2.6-1,2.8-4,4.2-6.3
				c3.8-6.3,14.7-6.3,21.9-6.4c10.2,0,19.1,2,27.9,4.9c12.2,4.1,20.3,8.8,34.2,16.9c12.9,7.5,20.7,12.1,30.7,20.1
				c11.7,9.4,19.8,18.2,25.8,24.7c5.1,5.6,10,11,14.8,17.7c10.6,14.8,14.8,27.9,20.8,46.6c6.6,20.7,11.7,36.5,11.6,50.1
				c0,4.3-0.6,11.3,2.8,19.1c1.3,3.1,2.8,5.2,4.6,10.2c0.7,1.9,2.3,6.4,2.8,11.3c1.2,10.4-3.1,13.7-2.8,25.1
				c0.1,4.6,0.9,7.6,1.8,11.3c4.4,19.4,6,40.5,7.8,64.2c0.5,6.2,1.2,16.1,1.4,29.3c0.3,19.2,2.2,38.4,1.8,57.5
				c-0.1,6.6-0.5,14.2,4.6,19.8c0.9,1,2.8,2.8,15.2,7.8c9.6,3.8,10.6,3.5,17.3,6.4c10.9,4.5,16.4,6.9,19.8,12.4
				c1.1,1.8,2.2,4.2,2.8,14.8c0.7,11.3,0,15.9-0.3,30.3c-0.3,11.4,0.1,13.6-0.3,25.4c-0.2,5.7-0.5,10.4-0.7,13.4"/>
		</defs>
		<clipPath id="SVGID_2_">
			<use xlink:href="#SVGID_1_"  style="overflow:visible;"/>
		</clipPath>
		<g class="st0">
			
				<image style="overflow:visible;enable-background:new    ;" width="3136" height="4224" xlink:href="DD75F99B.jpeg"  transform="matrix(0.1811 0 0 0.1811 20.6897 -53.4471)">
			</image>
		</g>
	</g>
</g>
<g>
	<defs>
		<path id="SVGID_3_" d="M347.9,300.8c0.9,0.8-0.8,3.6-2.5,6.8c-1.7,3.2-3.1,6.6-4.8,9.8c-7.7,14.3-6.7,12.9-8.6,16.1
			c-3.2,5.2-5.2,8.6-8.8,12.7c-3.1,3.6-7.8,8.8-15.4,12.8c-1.8,0.9-7.2,3.7-12.6,4.2c-0.6,0.1-2.5,0.2-4.6,0.3
			c-2.5,0.1-4.7,0.2-6.2,0.2c-7.2,0.1-10.8,0.1-13.5-0.5c-2.6-0.6-4.5-1.4-7.3-2.6c-1.4-0.6-4.6-2-7.9-4.1c-2-1.2-9.6-6.2-14.5-14.8
			c-0.6-1-0.9-1.6-4.1-7.5c-1.9-3.4-2.4-4.4-3.4-5.8c-1.7-2.5-3.8-4.8-4.1-5.2c-1.1-1.3-1.9-2-3-3.5c-0.6-0.8-1.8-2.4-1.8-2.4l0,0
			c0,0,1.5-1.1,2.7-1.7c2.2-1,3.2-0.2,6-1.3c0.8-0.3,1.3-0.6,1.6-0.8c2-1.1,11.9-5.5,24-6.3c5.8-0.4,4.8,0.6,17.2,0.6
			c6.2,0,9-0.2,12.2-1.4c2.4-0.9,3.7-1.9,7-2.8c3.4-0.9,6.1-1,7.9-1.1c14.8-0.6,13.2-1.2,21.5-1.1c4.9,0,10.6,0.3,14.5,0
			c1.8-0.1,3.6-0.1,5.3-0.3C346.8,300.6,347.5,300.4,347.9,300.8z"/>
	</defs>
	<clipPath id="SVGID_4_">
		<use xlink:href="#SVGID_3_"  style="overflow:visible;"/>
	</clipPath>
	<g transform="matrix(1 -1.490116e-08 1.490116e-08 1 0 0)" style="clip-path:url(#SVGID_4_);">
		
			<image style="overflow:visible;" width="900" height="540" xlink:href="../../../sonrisa.jpg"  transform="matrix(-0.1485 3.737855e-02 3.570651e-02 0.1418 346.9192 276.6648)">
		</image>
	</g>
</g>
</svg>
