<?xml version="1.0" encoding="utf-8"?>
<!-- Generator: Adobe Illustrator 23.0.1, SVG Export Plug-In . SVG Version: 6.00 Build 0)  -->
<svg version="1.1" id="Capa_1" xmlns="http://www.w3.org/2000/svg" xmlns:xlink="http://www.w3.org/1999/xlink" x="0px" y="0px"
	 viewBox="0 0 566.9 595.3" style="enable-background:new 0 0 566.9 595.3;" xml:space="preserve">
<g>
	<defs>
		<path id="SVGID_1_" d="M347.9,300.8c0.9,0.8-0.8,3.6-2.5,6.8c-1.7,3.2-3.1,6.6-4.8,9.8c-7.7,14.3-6.7,12.9-8.6,16.1
			c-3.2,5.2-5.2,8.6-8.8,12.7c-3.1,3.6-7.8,8.8-15.4,12.8c-1.8,0.9-7.2,3.7-12.6,4.2c-0.6,0.1-2.5,0.2-4.6,0.3
			c-2.5,0.1-4.7,0.2-6.2,0.2c-7.2,0.1-10.8,0.1-13.5-0.5c-2.6-0.6-4.5-1.4-7.3-2.6c-1.4-0.6-4.6-2-7.9-4.1c-2-1.2-9.6-6.2-14.5-14.8
			c-0.6-1-0.9-1.6-4.1-7.5c-1.9-3.4-2.4-4.4-3.4-5.8c-1.7-2.5-3.8-4.8-4.1-5.2c-1.1-1.3-1.9-2-3-3.5c-0.6-0.8-1.8-2.4-1.8-2.4l0,0
			c0,0,1.5-1.1,2.7-1.7c2.2-1,3.2-0.2,6-1.3c0.8-0.3,1.3-0.6,1.6-0.8c2-1.1,11.9-5.5,24-6.3c5.8-0.4,4.8,0.6,17.2,0.6
			c6.2,0,9-0.2,12.2-1.4c2.4-0.9,3.7-1.9,7-2.8c3.4-0.9,6.1-1,7.9-1.1c14.8-0.6,13.2-1.2,21.5-1.1c4.9,0,10.6,0.3,14.5,0
			c1.8-0.1,3.6-0.1,5.3-0.3C346.8,300.6,347.5,300.4,347.9,300.8z"/>
	</defs>
	<clipPath id="SVGID_2_">
		<use xlink:href="#SVGID_1_"  style="overflow:visible;"/>
	</clipPath>
	<g transform="matrix(1 -1.490116e-08 1.490116e-08 1 0 0)" style="clip-path:url(#SVGID_2_);">
		
			<image style="overflow:visible;" width="900" height="540" xlink:href="../../../sonrisa.jpg"  transform="matrix(-0.1485 3.737855e-02 3.570651e-02 0.1418 346.9192 276.6648)">
		</image>
	</g>
</g>
</svg>
